# AST/ASF file generated using VICON BodyLanguage
# -----------------------------------------------
:version 1.10
:name VICON
:units
  mass 1.0
  length 0.45
  angle deg
:documentation
   .ast/.asf automatically generated from VICON data using
   VICON BodyBuilder and BodyLanguage model FoxedUp or BRILLIANT.MOD
:root
   order TX TY TZ RX RY RZ
   axis XYZ
   position 0 0 0  
   orientation 0 0 0 
:bonedata
  begin
     id 1 
     name lhipjoint
     direction 0.690799 -0.707083 0.151096 
     length 2.54797 
     axis 0 0 0  XYZ
  end
  begin
     id 2 
     name lfemur
     direction 0.34202 -0.939693 0  
     length 7.21646  
     axis 0 0 20  XYZ
    dof rx ry rz
    limits (-160.0 20.0)
           (-70.0 70.0)
           (-60.0 70.0)
  end
  begin
     id 3 
     name ltibia
     direction 0.34202 -0.939693 0   
     length 8.16759   
     axis 0 0 20   XYZ
    dof rx
    limits (-10.0 170.0)
  end
  begin
     id 4 
     name lfoot
     direction 0.0487203 -0.133858 0.989802   
     length 1.93375   
     axis -90 7.62852e-016 20   XYZ
    dof rx rz
    limits (-45.0 90.0)
           (-70.0 20.0)
  end
  begin
     id 5 
     name ltoes
     direction 1.53453e-011 -4.21783e-011 1   
     length 0.979747   
     axis -90 7.62852e-016 20   XYZ
    dof rx
    limits (-90.0 20.0)
  end
  begin
     id 6 
     name rhipjoint
     direction -0.694693 -0.703425 0.150315   
     length 2.56122  
     axis 0 0 0  XYZ 
  end
  begin
     id 7 
     name rfemur
     direction -0.34202 -0.939693 0   
     length 7.36786   
     axis 0 0 -20   XYZ
    dof rx ry rz
    limits (-160.0 20.0)
           (-70.0 70.0)
           (-70.0 60.0)
  end
  begin
     id 8 
     name rtibia
     direction -0.34202 -0.939693 0   
     length 8.07288   
     axis 0 0 -20   XYZ
    dof rx
    limits (-10.0 170.0)
 end
 begin
     id 9 
     name rfoot
     direction -0.0428397 -0.117701 0.992125   
     length 1.88295  
     axis -90 -7.62852e-016 -20   XYZ
    dof rx rz
    limits (-45.0 90.0)
           (-20.0 70.0)
  end
  begin
     id 10 
     name rtoes
     direction -1.53456e-011 -4.2187e-011 1   
     length 0.955578   
     axis -90 -7.62852e-016 -20   XYZ
    dof rx
    limits (-90.0 20.0)
  end
  begin
     id 11 
     name lowerback
     direction 0.0288145 0.999398 -0.0193241   
     length 1.92149   
     axis 0 0 0   XYZ
    dof rx ry rz
    limits (-20.0 45.0)
           (-30.0 30.0)
           (-30.0 30.0)
  end
  begin
     id 12 
     name upperback
     direction 0.0233784 0.998099 0.0570278   
     length 1.90435   
     axis 0 0 0   XYZ
    dof rx ry rz
    limits (-20.0 45.0)
           (-30.0 30.0)
           (-30.0 30.0)
  end
  begin
     id 13 
     name thorax
     direction 0.0096694 0.997833 0.0650817   
     length 1.9111   
     axis 0 0 0   XYZ
    dof rx ry rz
    limits (-20.0 45.0)
           (-30.0 30.0)
           (-30.0 30.0)
  end
  begin
     id 14 
     name lowerneck
     direction 0.00516803 0.999916 0.0118722   
     length 1.74664   
     axis 0 0 0   XYZ
    dof rx ry rz
    limits (-20.0 45.0)
           (-30.0 30.0)
           (-30.0 30.0)
  end
  begin
     id 15 
     name upperneck
     direction -0.0510851 0.996117 -0.071696   
     length 1.68498   
     axis 0 0 0   XYZ
    dof rx ry rz
    limits (-20.0 45.0)
           (-30.0 30.0)
           (-30.0 30.0)
  end
  begin
     id 16
     name head
     direction -0.019188 0.999436 -0.0275702  
     length 1.83483  
     axis 0 0 0   XYZ
    dof rx ry rz
    limits (-20.0 45.0)
           (-30.0 30.0)
           (-30.0 30.0)
  end
  begin
     id 17 
     name lclavicle
     direction 0.967006 0.248456 -0.0562957  
     length 3.39395  
     axis 0 0 0   XYZ
    dof ry rz
    limits (-20.0 10.0)
           (0.0 20.0)
  end
  begin
     id 18 
     name lhumerus
     direction 1 -4.48962e-011 -5.62711e-019   
     length 5.24318   
     axis 180 -30 -90   XYZ
    dof rx ry rz
    limits (-60.0 90.0)
           (-90.0 90.0)
           (-90.0 90.0)
  end
  begin
     id 19
     name lradius
     direction 1 -4.48966e-011 7.90625e-027   
     length 2.98999   
     axis 180 -30 -90   XYZ
    dof rx
    limits (-10.0 170.0)
  end
  begin
     id 20
     name lwrist
     direction 1 -4.48959e-011 1.61068e-026   
     length 1.49499   
     axis -9.31229e-015 90 90   XYZ
    dof ry
    limits (-180.0 0.0)
 end
  begin
     id 21 
     name lhand
     direction 1 -4.49017e-011 3.22136e-026   
     length 0.726745   
     axis -2.0555e-014 90 90   XYZ
    dof rx rz
    limits (-90.0 90.0)
           (-45.0 45.0)
  end
  begin
     id 22 
     name lfingers
     direction 1 -4.4898e-011 6.44272e-026   
     length 0.58592   
     axis -4.11101e-014 90 90   XYZ
    dof rx
    limits (0.0 90.0)
  end
  begin
     id 23
     name lthumb
     direction 0.707107 -6.34922e-011 0.707107   
     length 0.841268   
     axis -90 45 2.85299e-015   XYZ
    dof rx rz
    limits (-45.0 45.0)
           (-45.0 45.0)
  end
  begin
     id 24 
     name rclavicle
     direction -0.972232 0.230238 0.0419005   
     length 3.40416  
     axis 0 0 0   XYZ 
    dof ry rz
    limits (-10.0 20.0)
           (-20.0 0.0)
  end
  begin
     id 25 
     name rhumerus
     direction -1 -4.48976e-011 2.48487e-027  
     length 5.37045   
     axis 180 30 90   XYZ
    dof rx ry rz
    limits (-90.0 60.0)
           (-90.0 90.0)
           (-90.0 90.0)
  end
  begin
     id 26 
     name rradius
     direction -1 -4.48942e-011 7.87951e-027   
     length 2.92792   
     axis 180 30 90   XYZ
    dof rx
    limits (-10.0 170.0)
  end
  begin
     id 27 
     name rwrist
     direction -1 -4.48969e-011 1.61068e-026   
     length 1.46396   
     axis -9.31229e-015 -90 -90   XYZ
    dof ry
    limits (-180.0 0.0)
  end
  begin
     id 28
     name rhand
     direction -1 -4.49043e-011 3.22136e-026   
     length 0.784497   
     axis -2.0555e-014 -90 -90   XYZ
    dof rx rz
    limits (-90.0 90.0)
           (-45.0 45.0)
  end
  begin
     id 29
     name rfingers
     direction -1 -4.48823e-011 6.44272e-026   
     length 0.632482   
     axis -4.11101e-014 -90 -90   XYZ
    dof rx
    limits (0.0 90.0)
  end
  begin
     id 30
     name rthumb
     direction -0.707107 -6.34923e-011 0.707107   
     length 0.908121   
     axis -90 -45 -2.85299e-015   XYZ
    dof rx rz
    limits (-45.0 45.0)
           (-45.0 45.0)
  end
:hierarchy
  begin
    root lhipjoint rhipjoint lowerback
    lhipjoint lfemur
    lfemur ltibia
    ltibia lfoot
    lfoot ltoes
    rhipjoint rfemur
    rfemur rtibia
    rtibia rfoot
    rfoot rtoes
    lowerback upperback
    upperback thorax
    thorax lowerneck lclavicle rclavicle
    lowerneck upperneck
    upperneck head
    lclavicle lhumerus
    lhumerus lradius
    lradius lwrist
    lwrist lhand lthumb
    lhand lfingers
    rclavicle rhumerus
    rhumerus rradius
    rradius rwrist
    rwrist rhand rthumb
    rhand rfingers
  end

#!OML:ASF E:\Style6\Style6.ASF
:FULLY-SPECIFIED
:DEGREES
1157
root -0.133301 17.9607 0.36575 14.7852 0.789904 -2.37125
lowerback 12.4686 -0.602338 -1.53745
upperback -5.7692 -1.66523 -4.54998
thorax -13.5465 -0.914899 -3.79153
lowerneck -2.27815 4.62753 1.45329
upperneck 0.909084 6.1327 -0.204336
head 0.700448 3.06954 -0.218839
rclavicle -3.18055e-015 -1.11319e-014
rhumerus -14.3445 7.1972 -14.0149
rradius 46.5946
rwrist -27.558
rhand 6.76846 -9.7489
rfingers 7.12502
rthumb 32.0553 -36.9437
lclavicle -3.18055e-015 -1.11319e-014
lhumerus -9.19188 21.1224 -1.73209
lradius 44.7769
lwrist 16.6727
lhand -6.39577 32.4196
lfingers 7.12502
lthumb 19.4519 61.4667
rfemur -25.6218 -5.66487 24.1358
rtibia 25.8382
rfoot -8.6019 -7.2932
rtoes -14.1223
lfemur -28.3527 -3.57049 -14.3213
ltibia 31.5923
lfoot -9.55032 12.0549
ltoes -17.9097
1158
root -0.143104 17.9938 0.407091 14.529 0.526635 -2.56665
lowerback 12.0284 -0.575919 -1.57454
upperback -5.88912 -1.64309 -4.71529
thorax -13.4203 -0.911759 -3.96139
lowerneck -2.25526 4.62969 1.54963
upperneck 1.12555 6.13188 -0.146543
head 0.764856 3.07087 -0.214279
rclavicle -2.00773e-014 -3.65764e-014
rhumerus -14.0127 7.90126 -13.6479
rradius 46.7604
rwrist -27.6165
rhand 6.98119 -9.90311
rfingers 7.12502
rthumb 32.2578 -37.057
lclavicle -2.00773e-014 -3.65764e-014
lhumerus -9.10301 21.0362 -1.92657
lradius 44.7965
lwrist 16.5717
lhand -6.35219 32.4197
lfingers 7.12502
lthumb 19.4938 61.4625
rfemur -24.4149 -4.84741 24.1562
rtibia 24.4614
rfoot -8.23108 -7.81117
rtoes -13.6766
lfemur -27.344 -4.13337 -14.0398
ltibia 30.7516
lfoot -9.31814 12.916
ltoes -17.8232
1159
root -0.153718 18.0203 0.445464 14.2862 0.339248 -2.81133
lowerback 11.6387 -0.573868 -1.5178
upperback -6.0199 -1.63869 -4.86974
thorax -13.3413 -0.925155 -4.16895
lowerneck -2.35445 4.6029 1.54082
upperneck 1.49039 6.09023 0.0495554
head 0.887644 3.05361 -0.146349
rclavicle 1.68967e-014 -7.95139e-015
rhumerus -13.6964 8.63384 -13.2656
rradius 46.9442
rwrist -27.7047
rhand 7.28962 -9.85032
rfingers 7.12502
rthumb 32.5513 -36.9441
lclavicle 1.68967e-014 -7.95139e-015
lhumerus -8.97303 21.0806 -2.11835
lradius 44.7896
lwrist 16.3436
lhand -6.15916 32.2974
lfingers 7.12502
lthumb 19.6793 61.3212
rfemur -23.2834 -4.02376 24.2582
rtibia 23.1723
rfoot -7.89289 -8.40614
rtoes -13.2014
lfemur -26.4325 -4.70513 -13.7074
ltibia 30.0075
lfoot -8.88681 13.8227
ltoes -18.8894
1160
root -0.164745 18.0412 0.481167 14.053 0.219389 -3.00491
lowerback 11.3093 -0.600002 -1.50151
upperback -6.15089 -1.68237 -5.02339
thorax -13.302 -0.957912 -4.34233
lowerneck -2.47869 4.56841 1.52602
upperneck 1.8472 6.03696 0.248198
head 1.01266 3.03107 -0.0761489
rclavicle 1.66979e-014 5.88403e-014
rhumerus -13.3662 9.36223 -12.85
rradius 47.1382
rwrist -27.7734
rhand 7.66995 -9.69714
rfingers 7.12502
rthumb 32.9132 -36.7156
lclavicle 1.66979e-014 5.88403e-014
lhumerus -8.81481 21.2882 -2.29913
lradius 44.7143
lwrist 16.0848
lhand -5.9432 32.127
lfingers 7.12502
lthumb 19.887 61.1295
rfemur -22.2006 -3.21541 24.3291
rtibia 21.9304
rfoot -7.61065 -9.0708
rtoes -12.2682
lfemur -25.5817 -5.34005 -13.4009
ltibia 29.2968
lfoot -8.58866 14.6377
ltoes -19.382
1161
root -0.174001 18.0638 0.516571 13.8313 0.0618448 -3.12066
lowerback 10.9864 -0.635565 -1.56064
upperback -6.30551 -1.75307 -5.17528
thorax -13.2943 -0.997176 -4.46605
lowerneck -2.49783 4.5726 1.51585
upperneck 2.13195 6.03737 0.410192
head 1.09956 3.03494 -0.0204247
rclavicle -1.92821e-014 -6.36111e-015
rhumerus -13.023 10.1464 -12.4175
rradius 47.4048
rwrist -27.8641
rhand 7.93597 -9.64464
rfingers 7.12502
rthumb 33.1661 -36.6096
lclavicle -1.92821e-014 -6.36111e-015
lhumerus -8.73268 21.3734 -2.49355
lradius 44.6433
lwrist 16.0678
lhand -6.08581 32.125
lfingers 7.12502
lthumb 19.7499 61.1416
rfemur -21.1643 -2.43184 24.3211
rtibia 20.7394
rfoot -7.42467 -9.67365
rtoes -11.1109
lfemur -24.7518 -6.07805 -13.1754
ltibia 28.6064
lfoot -8.43626 15.4808
ltoes -19.0136
1162
root -0.180269 18.0873 0.549212 13.5776 -0.182553 -3.22539
lowerback 10.6694 -0.643146 -1.63002
upperback -6.42301 -1.78368 -5.3165
thorax -13.2429 -1.01526 -4.5798
lowerneck -2.50108 4.57995 1.5088
upperneck 2.33016 6.04431 0.488657
head 1.15974 3.04059 0.00792343
rclavicle 5.96354e-016 -1.59028e-014
rhumerus -12.5797 10.7995 -11.9979
rradius 47.6409
rwrist -27.9569
rhand 8.083 -9.55026
rfingers 7.12502
rthumb 33.3059 -36.4854
lclavicle 5.96354e-016 -1.59028e-014
lhumerus -8.71949 21.465 -2.66952
lradius 44.6227
lwrist 16.1687
lhand -6.22966 32.0706
lfingers 7.12502
lthumb 19.6116 61.1014
rfemur -20.1367 -1.66885 24.3
rtibia 19.596
rfoot -7.08216 -10.2227
rtoes -11.4423
lfemur -23.8895 -6.94865 -12.9783
ltibia 27.9424
lfoot -8.30633 16.532
ltoes -18.4447
1163
root -0.187514 18.1063 0.57927 13.3051 -0.432113 -3.38568
lowerback 10.372 -0.635903 -1.67552
upperback -6.4993 -1.78433 -5.42745
thorax -13.1524 -1.01863 -4.6782
lowerneck -2.57637 4.5898 1.54248
upperneck 2.53251 6.05305 0.511034
head 1.23701 3.04681 0.0146878
rclavicle 1.59028e-015 -7.63333e-014
rhumerus -12.0801 11.3116 -11.5592
rradius 47.8435
rwrist -28.0047
rhand 8.22165 -9.56543
rfingers 7.12502
rthumb 33.4377 -36.4722
lclavicle 1.59028e-015 -7.63333e-014
lhumerus -8.70848 21.6758 -2.83419
lradius 44.6387
lwrist 16.0545
lhand -5.84559 31.9455
lfingers 7.12502
lthumb 19.9808 60.9383
rfemur -19.1155 -0.972246 24.3686
rtibia 18.4646
rfoot -6.62205 -10.7687
rtoes -12.2352
lfemur -23.0206 -7.62823 -12.7667
ltibia 27.3238
lfoot -8.31093 17.4006
ltoes -17.7742
1164
root -0.196211 18.1221 0.605992 13.0786 -0.617859 -3.57914
lowerback 10.0176 -0.65712 -1.71397
upperback -6.53685 -1.81018 -5.48745
thorax -12.9805 -1.03013 -4.7154
lowerneck -2.70519 4.60332 1.5269
upperneck 2.66076 6.0693 0.484982
head 1.30036 3.05511 0.0150679
rclavicle 9.54166e-015 1.59028e-014
rhumerus -11.4762 11.6964 -11.094
rradius 48.0148
rwrist -28.1255
rhand 8.26775 -9.66785
rfingers 7.12502
rthumb 33.4816 -36.5652
lclavicle 9.54166e-015 1.59028e-014
lhumerus -8.70215 22.1215 -2.9505
lradius 44.6054
lwrist 15.8592
lhand -5.42071 31.8097
lfingers 7.12502
lthumb 20.3891 60.7593
rfemur -18.1755 -0.354887 24.5013
rtibia 17.3427
rfoot -6.23355 -11.2474
rtoes -11.7713
lfemur -22.2865 -8.16641 -12.5153
ltibia 26.7837
lfoot -8.373 18.0777
ltoes -16.9659
1165
root -0.202676 18.136 0.631179 12.9629 -0.749452 -3.72127
lowerback 9.53009 -0.696692 -1.73441
upperback -6.579 -1.85272 -5.56529
thorax -12.7346 -1.0517 -4.77835
lowerneck -2.7537 4.62079 1.55787
upperneck 2.70833 6.09302 0.393944
head 1.32814 3.06597 -0.0151908
rclavicle -1.2921e-014 -1.27222e-014
rhumerus -10.8396 11.969 -10.5843
rradius 48.1077
rwrist -28.2401
rhand 8.37776 -9.65675
rfingers 7.12502
rthumb 33.5861 -36.5314
lclavicle -1.2921e-014 -1.27222e-014
lhumerus -8.67108 22.338 -3.05048
lradius 44.5929
lwrist 16.0488
lhand -5.49607 31.9424
lfingers 7.12502
lthumb 20.3167 60.8997
rfemur -17.3744 0.129078 24.5945
rtibia 16.2534
rfoot -5.94542 -11.5759
rtoes -10.4637
lfemur -21.7636 -8.75517 -12.3063
ltibia 26.3419
lfoot -8.32794 18.7725
ltoes -16.5715
1166
root -0.209515 18.1475 0.657063 12.8637 -0.935811 -3.90415
lowerback 9.12633 -0.70978 -1.67729
upperback -6.72656 -1.86253 -5.67181
thorax -12.6652 -1.06937 -4.93031
lowerneck -2.63719 4.62874 1.57576
upperneck 2.83144 6.10311 0.446646
head 1.34594 3.07275 -0.00286487
rclavicle 3.60794e-014 -6.36111e-015
rhumerus -10.3037 12.39 -10.1022
rradius 48.1965
rwrist -28.324
rhand 8.5323 -9.73377
rfingers 7.12502
rthumb 33.733 -36.5764
lclavicle 3.60794e-014 -6.36111e-015
lhumerus -8.6564 22.0329 -3.24102
lradius 44.7008
lwrist 16.5803
lhand -5.65314 32.1911
lfingers 7.12502
lthumb 20.1658 61.1644
rfemur -16.5954 0.626794 24.7298
rtibia 15.1806
rfoot -5.63948 -11.8605
rtoes -9.67207
lfemur -21.2928 -9.28953 -12.0736
ltibia 25.9966
lfoot -8.25204 19.4595
ltoes -16.4788
1167
root -0.215579 18.1591 0.68281 12.6997 -1.14966 -4.06287
lowerback 8.82784 -0.713366 -1.62942
upperback -6.86494 -1.8691 -5.80301
thorax -12.6513 -1.08682 -5.10634
lowerneck -2.56761 4.60499 1.64622
upperneck 3.00246 6.06846 0.474593
head 1.38949 3.05769 -0.00554875
rclavicle 1.95803e-014 3.81667e-014
rhumerus -9.8426 12.7241 -9.69118
rradius 48.3105
rwrist -28.3227
rhand 8.72066 -9.76309
rfingers 7.12502
rthumb 33.9119 -36.5664
lclavicle 1.95803e-014 3.81667e-014
lhumerus -8.61703 22.0782 -3.36554
lradius 44.7796
lwrist 16.6257
lhand -5.59222 32.1637
lfingers 7.12502
lthumb 20.2243 61.1309
rfemur -15.7533 1.06759 24.8447
rtibia 14.1312
rfoot -5.23224 -12.1223
rtoes -10.1889
lfemur -20.7662 -9.73272 -11.9071
ltibia 25.7005
lfoot -8.34763 20.0471
ltoes -16.2975
1168
root -0.221401 18.1676 0.704296 12.5602 -1.30012 -4.26878
lowerback 8.50083 -0.724232 -1.53465
upperback -6.9468 -1.86846 -5.89074
thorax -12.5525 -1.10072 -5.25893
lowerneck -2.54596 4.56477 1.67339
upperneck 3.05128 6.015 0.444829
head 1.40289 3.03108 -0.0199783
rclavicle 2.88238e-015 4.77083e-014
rhumerus -9.32321 12.945 -9.208
rradius 48.3185
rwrist -28.303
rhand 8.97829 -9.63254
rfingers 7.12502
rthumb 34.1566 -36.3814
lclavicle 2.88238e-015 4.77083e-014
lhumerus -8.50594 22.5361 -3.33873
lradius 44.7351
lwrist 16.2827
lhand -5.39147 32.0305
lfingers 7.12502
lthumb 20.4172 60.9771
rfemur -14.9972 1.43089 25.0318
rtibia 13.1585
rfoot -4.86414 -12.3444
rtoes -10.4603
lfemur -20.3049 -10.1581 -11.6913
ltibia 25.4246
lfoot -8.32202 20.6609
ltoes -16.1494
1169
root -0.227612 18.1756 0.726299 12.3316 -1.55992 -4.40859
lowerback 8.3154 -0.703626 -1.56426
upperback -7.04769 -1.85174 -5.97637
thorax -12.5576 -1.0971 -5.34382
lowerneck -2.50884 4.52442 1.71735
upperneck 3.18613 5.9612 0.397875
head 1.44215 3.00463 -0.0414782
rclavicle 3.51352e-014 1.27222e-014
rhumerus -8.79804 13.3262 -8.69835
rradius 48.3196
rwrist -28.3251
rhand 9.16447 -9.43483
rfingers 7.12502
rthumb 34.3334 -36.144
lclavicle 3.51352e-014 1.27222e-014
lhumerus -8.4614 22.682 -3.3895
lradius 44.7157
lwrist 16.1984
lhand -5.30163 31.9733
lfingers 7.12502
lthumb 20.5036 60.9106
rfemur -14.2008 1.88082 25.128
rtibia 12.2881
rfoot -4.47574 -12.5583
rtoes -11.1686
lfemur -19.7189 -10.5677 -11.5919
ltibia 25.1668
lfoot -8.38342 21.3747
ltoes -15.2068
1170
root -0.232822 18.1818 0.751108 11.994 -1.99122 -4.4237
lowerback 8.20568 -0.647383 -1.79149
upperback -7.13589 -1.82041 -6.08649
thorax -12.5885 -1.07037 -5.3465
lowerneck -2.49097 4.51822 1.72808
upperneck 3.42244 5.95072 0.430811
head 1.51374 3.00151 -0.0301042
rclavicle 9.28076e-015 1.90833e-014
rhumerus -8.17149 13.6759 -8.23863
rradius 48.2386
rwrist -28.2036
rhand 9.39418 -9.39505
rfingers 7.12502
rthumb 34.5515 -36.0547
lclavicle 9.28076e-015 1.90833e-014
lhumerus -8.53286 22.6233 -3.55584
lradius 44.7725
lwrist 16.3148
lhand -5.24163 32.0528
lfingers 7.12502
lthumb 20.5612 60.9839
rfemur -13.3434 2.27225 25.0846
rtibia 11.5134
rfoot -4.1164 -12.5856
rtoes -12.2669
lfemur -18.9852 -10.914 -11.7005
ltibia 24.9364
lfoot -8.4597 22.1381
ltoes -14.542
